<svg width="28" height="26" viewBox="0 0 28 26" fill="none" xmlns="http://www.w3.org/2000/svg">
<path d="M14.125 21.5521C16.125 19.7605 17.6042 18.4063 18.5625 17.4896C19.5208 16.573 20.5625 15.4896 21.6875 14.2396C22.8125 12.9896 23.5833 11.8855 24 10.9271C24.4583 9.96879 24.6875 9.03129 24.6875 8.11462C24.6875 6.78129 24.2292 5.67712 23.3125 4.80212C22.4375 3.92712 21.3333 3.48962 20 3.48962C18.9583 3.48962 17.9792 3.78129 17.0625 4.36462C16.1875 4.94796 15.5833 5.69796 15.25 6.61462H12.75C12.4167 5.69796 11.7917 4.94796 10.875 4.36462C10 3.78129 9.04167 3.48962 8 3.48962C6.66667 3.48962 5.54167 3.92712 4.625 4.80212C3.75 5.67712 3.3125 6.78129 3.3125 8.11462C3.3125 9.03129 3.52083 9.96879 3.9375 10.9271C4.39583 11.8855 5.1875 12.9896 6.3125 14.2396C7.4375 15.4896 8.47917 16.573 9.4375 17.4896C10.3958 18.4063 11.875 19.7605 13.875 21.5521L14 21.6771L14.125 21.5521ZM20 0.802124C22.0833 0.802124 23.8125 1.51046 25.1875 2.92712C26.6042 4.34379 27.3125 6.07296 27.3125 8.11462C27.3125 9.32296 27.0833 10.5105 26.625 11.6771C26.1667 12.8021 25.3125 14.073 24.0625 15.4896C22.8542 16.9063 21.75 18.0938 20.75 19.0521C19.75 20.0105 18.1458 21.4896 15.9375 23.4896L14 25.2396L12.0625 23.5521C9.1875 20.9688 7.10417 19.0313 5.8125 17.7396C4.5625 16.448 3.39583 14.9271 2.3125 13.1771C1.22917 11.4271 0.6875 9.73962 0.6875 8.11462C0.6875 6.07296 1.375 4.34379 2.75 2.92712C4.16667 1.51046 5.91667 0.802124 8 0.802124C10.4167 0.802124 12.4167 1.73962 14 3.61462C15.5833 1.73962 17.5833 0.802124 20 0.802124Z" fill="#444444"/>
</svg>
